<svg id="图层_1" data-name="图层 1" xmlns="http://www.w3.org/2000/svg" xmlns:xlink="http://www.w3.org/1999/xlink" viewBox="0 0 650.47 558.08"><defs><style>.cls-1{fill:url(#未命名的渐变_26);}.cls-2{fill:url(#未命名的渐变_26-2);}.cls-3{fill:url(#未命名的渐变_26-3);}.cls-4{fill:url(#未命名的渐变_26-4);}.cls-5{fill:url(#未命名的渐变_26-5);}.cls-6{fill:url(#未命名的渐变_26-6);}</style><linearGradient id="未命名的渐变_26" x1="202.84" y1="122.79" x2="202.84" y2="684.02" gradientUnits="userSpaceOnUse"><stop offset="0" stop-color="#fcee21"/><stop offset="0.17" stop-color="#fbb03b"/><stop offset="0.76" stop-color="#f15a24"/><stop offset="1" stop-color="#f82e12"/></linearGradient><linearGradient id="未命名的渐变_26-2" x1="602.57" y1="122.89" x2="602.57" y2="683.95" xlink:href="#未命名的渐变_26"/><linearGradient id="未命名的渐变_26-3" x1="365.39" y1="122.79" x2="365.39" y2="684.02" xlink:href="#未命名的渐变_26"/><linearGradient id="未命名的渐变_26-4" x1="476.57" y1="122.79" x2="476.57" y2="684.02" xlink:href="#未命名的渐变_26"/><linearGradient id="未命名的渐变_26-5" x1="219.43" y1="2.16" x2="219.43" y2="563.38" xlink:href="#未命名的渐变_26"/><linearGradient id="未命名的渐变_26-6" x1="308.87" y1="2.16" x2="308.87" y2="563.34" xlink:href="#未命名的渐变_26"/></defs><path class="cls-1" d="M216.37,458.86a9.58,9.58,0,0,0-7.55-3.19c-44.51.82-89.06,0-133.56,1,1.92,0,10.74,10.08,12.21,11.37C121,497.63,154.76,527,188.2,556.71a37.86,37.86,0,0,1,2.92,3.39l-80.75,36.45c4.36,1,93.19,10.11,133.5,13.2a11.07,11.07,0,0,0,5.09-1.06c14.32-6.29,81.47-36.83,81.47-36.83S232.35,474.81,216.37,458.86Z" transform="translate(-75.26 -120.64)"/><path class="cls-2" d="M599.24,460.59a6.75,6.75,0,0,0-5,2.24C574.61,482.49,479.4,575.91,479.4,575.91l91.84,36.74,135.81-14.36-91.31-39.4c1.21-2.44,110-101.38,110-101.38S637.71,459.93,599.24,460.59Z" transform="translate(-75.26 -120.64)"/><path class="cls-3" d="M365.7,678.71c.07-.18.13-.35.19-.52l-1,0C364.91,678.08,365.67,678.79,365.7,678.71Z" transform="translate(-75.26 -120.64)"/><path class="cls-4" d="M583.31,455.26l3.93-210.63L444.58,394.88,365.89,678.19l27.68.52s49.18-85.38,71.66-107.49Z" transform="translate(-75.26 -120.64)"/><polygon class="cls-5" points="133.63 132.13 153.96 332.39 305.24 481.49 254.36 254.77 133.63 132.13"/><polygon class="cls-6" points="314.54 0 215.99 92.53 225.78 143.21 312.9 406.77 392.42 146.84 401.76 95.11 314.54 0"/></svg>